name baseline.mot
datacolumns 19
datarows 23
range 8.47663400000000 8.51329700000000
endheader
time	ground_force1_vx	ground_force1_vy	ground_force1_vz	ground_force1_px	ground_force1_py	ground_force1_pz	ground_force2_vx	ground_force2_vy	ground_force2_vz	ground_force2_px	ground_force2_py	ground_force2_pz	ground_torque1_x	ground_torque1_y	ground_torque1_z	ground_torque2_x	ground_torque2_y	ground_torque2_z	
8.47663400000000	-3.73319000000000	46.78975500000000	-13.13561800000000	0.18974400000000	0.00000000000000	0.13687700000000	-57.30357800000000	785.86886400000003	-68.61989600000000	-0.05030900000000	0.00000000000000	-0.09977300000000	0.00000000000000	-4.82222300000000	0.00000000000000	0.00000000000000	-1.74765100000000	0.00000000000000	
8.47830100000000	-3.85365700000000	53.71781000000000	-14.48267700000000	0.19165900000000	0.00000000000000	0.13812300000000	-57.68026100000000	783.70895499999995	-68.36882500000000	-0.05099400000000	0.00000000000000	-0.09965200000000	0.00000000000000	-5.41648800000000	0.00000000000000	0.00000000000000	-1.74887200000000	0.00000000000000	
8.47998100000000	-3.86272300000000	60.63042200000000	-15.67105300000000	0.19347200000000	0.00000000000000	0.13927000000000	-58.07308600000000	781.46717599999999	-68.10315600000000	-0.05167900000000	0.00000000000000	-0.09952800000000	0.00000000000000	-5.97550100000000	0.00000000000000	0.00000000000000	-1.75680100000000	0.00000000000000	
8.48163400000000	-3.75436600000000	67.45769100000000	-16.67968100000000	0.19519600000000	0.00000000000000	0.14033300000000	-58.48236400000000	779.14252299999998	-67.82267899999999	-0.05236400000000	0.00000000000000	-0.09939900000000	0.00000000000000	-6.49087300000000	0.00000000000000	0.00000000000000	-1.77159700000000	0.00000000000000	
8.48329700000000	-3.52714100000000	74.15367200000000	-17.49783900000000	0.19684200000000	0.00000000000000	0.14132300000000	-58.90833800000000	776.73391900000001	-67.52717900000000	-0.05304900000000	0.00000000000000	-0.09926800000000	0.00000000000000	-6.95753100000000	0.00000000000000	0.00000000000000	-1.79341100000000	0.00000000000000	
8.48499300000000	-3.18369000000000	80.69619299999999	-18.12445000000000	0.19841700000000	0.00000000000000	0.14225100000000	-59.35119000000000	774.24020800000005	-67.21643700000000	-0.05373400000000	0.00000000000000	-0.09913200000000	0.00000000000000	-7.37361100000000	0.00000000000000	0.00000000000000	-1.82237800000000	0.00000000000000	
8.48663800000000	-2.72998800000000	87.08473600000001	-18.56671200000000	0.19992800000000	0.00000000000000	0.14312400000000	-59.81102800000000	771.66015700000003	-66.89023299999999	-0.05441800000000	0.00000000000000	-0.09899300000000	0.00000000000000	-7.74009500000000	0.00000000000000	0.00000000000000	-1.85862500000000	0.00000000000000	
8.48829800000000	-2.17446000000000	93.33691800000000	-18.83829300000000	0.20138100000000	0.00000000000000	0.14395000000000	-60.28788900000000	768.99245499999995	-66.54834200000001	-0.05510200000000	0.00000000000000	-0.09885000000000	0.00000000000000	-8.06028600000000	0.00000000000000	0.00000000000000	-1.90226000000000	0.00000000000000	
8.48996900000000	-1.52704600000000	99.48408200000000	-18.95729900000000	0.20277900000000	0.00000000000000	0.14473300000000	-60.78173800000000	766.23571400000003	-66.19054000000000	-0.05578500000000	0.00000000000000	-0.09870400000000	0.00000000000000	-8.33917700000000	0.00000000000000	0.00000000000000	-1.95338000000000	0.00000000000000	
8.49163600000000	-0.79830600000000	105.56654100000000	-18.94425000000000	0.20412600000000	0.00000000000000	0.14547900000000	-61.29246100000000	763.38846999999998	-65.81660200000000	-0.05646700000000	0.00000000000000	-0.09855400000000	0.00000000000000	-8.58279200000000	0.00000000000000	0.00000000000000	-2.01206700000000	0.00000000000000	
8.49330000000000	0.00136400000000	111.62891300000000	-18.82019900000000	0.20542600000000	0.00000000000000	0.14619100000000	-61.81986400000000	760.44918700000005	-65.42630300000000	-0.05715000000000	0.00000000000000	-0.09840000000000	0.00000000000000	-8.79755200000000	0.00000000000000	0.00000000000000	-2.07838600000000	0.00000000000000	
8.49499100000000	0.86237300000000	117.71589600000000	-18.60514100000000	0.20668000000000	0.00000000000000	0.14687400000000	-62.36367200000000	757.41625599999998	-65.01942000000000	-0.05783100000000	0.00000000000000	-0.09824300000000	0.00000000000000	-8.98972200000000	0.00000000000000	0.00000000000000	-2.15238600000000	0.00000000000000	
8.49663700000000	1.77639200000000	123.86875800000000	-18.31677600000000	0.20789100000000	0.00000000000000	0.14752900000000	-62.92353000000000	754.28800300000000	-64.59573300000000	-0.05851100000000	0.00000000000000	-0.09808100000000	0.00000000000000	-9.16495700000000	0.00000000000000	0.00000000000000	-2.23410000000000	0.00000000000000	
8.49829700000000	2.73663800000000	130.12267399999999	-17.96966600000000	0.20906000000000	0.00000000000000	0.14816000000000	-63.49899300000000	751.06268799999998	-64.15502800000000	-0.05919100000000	0.00000000000000	-0.09791700000000	0.00000000000000	-9.32798100000000	0.00000000000000	0.00000000000000	-2.32354100000000	0.00000000000000	
8.49998600000000	3.73798800000000	136.50496799999999	-17.57477400000000	0.21018900000000	0.00000000000000	0.14876900000000	-64.08953500000000	747.73851400000001	-63.69709400000000	-0.05987000000000	0.00000000000000	-0.09774800000000	0.00000000000000	-9.48238000000000	0.00000000000000	0.00000000000000	-2.42070600000000	0.00000000000000	
8.50163500000000	4.77693900000000	143.03423200000000	-17.13936600000000	0.21127900000000	0.00000000000000	0.14935800000000	-64.69454000000000	744.31362999999999	-63.22173000000000	-0.06054800000000	0.00000000000000	-0.09757700000000	0.00000000000000	-9.63053000000000	0.00000000000000	0.00000000000000	-2.52557200000000	0.00000000000000	
8.50330100000000	5.85145000000000	149.72023300000001	-16.66720000000000	0.21233000000000	0.00000000000000	0.14992800000000	-65.31330400000000	740.78614000000005	-62.72874400000000	-0.06122500000000	0.00000000000000	-0.09740100000000	0.00000000000000	-9.77362100000000	0.00000000000000	0.00000000000000	-2.63809700000000	0.00000000000000	
8.50499000000000	6.96070800000000	156.56445900000000	-16.15895300000000	0.21334200000000	0.00000000000000	0.15048100000000	-65.94503600000000	737.15410499999996	-62.21795500000000	-0.06190200000000	0.00000000000000	-0.09722200000000	0.00000000000000	-9.91176700000000	0.00000000000000	0.00000000000000	-2.75821800000000	0.00000000000000	
8.50663700000000	8.10482900000000	163.56116800000001	-15.61279700000000	0.21431700000000	0.00000000000000	0.15101900000000	-66.58885200000000	733.41555200000005	-61.68919300000000	-0.06257700000000	0.00000000000000	-0.09704000000000	0.00000000000000	-10.04418400000000	0.00000000000000	0.00000000000000	-2.88585300000000	0.00000000000000	
8.50830100000000	9.28454300000000	170.69874300000001	-15.02506600000000	0.21525500000000	0.00000000000000	0.15154100000000	-67.24378400000001	729.56848200000002	-61.14230600000000	-0.06325200000000	0.00000000000000	-0.09685500000000	0.00000000000000	-10.16939400000000	0.00000000000000	0.00000000000000	-3.02089600000000	0.00000000000000	
8.50998600000000	10.50089300000000	177.96121600000001	-14.39093500000000	0.21615500000000	0.00000000000000	0.15205000000000	-67.90876900000001	725.61087999999995	-60.57715500000000	-0.06392600000000	0.00000000000000	-0.09666600000000	0.00000000000000	-10.28545500000000	0.00000000000000	0.00000000000000	-3.16322400000000	0.00000000000000	
8.51163800000000	11.75495100000000	185.32981100000001	-13.70507100000000	0.21701700000000	0.00000000000000	0.15254600000000	-68.58266100000000	721.54071599999997	-59.99362200000000	-0.06459900000000	0.00000000000000	-0.09647400000000	0.00000000000000	-10.39018200000000	0.00000000000000	0.00000000000000	-3.31268700000000	0.00000000000000	
8.51329700000000	13.04758600000000	192.78438499999999	-12.96220500000000	0.21784200000000	0.00000000000000	0.15303000000000	-69.26422200000000	717.35596299999997	-59.39160800000000	-0.06527100000000	0.00000000000000	-0.09627800000000	0.00000000000000	-10.48134400000000	0.00000000000000	0.00000000000000	-3.46911700000000	0.00000000000000	
